<svg height="512pt" viewBox="-3 0 512 512" width="512pt" xmlns="http://www.w3.org/2000/svg"><path d="M95.586 297.512L0 436.918l92.29-17.211L109.5 512l90.746-132.348zm0 0" fill="#f57f41"/><path d="M410.379 297.512l-104.66 82.14L396.469 512l17.207-92.293 92.289 17.211zm0 0" fill="#ea623c"/><path d="M252.98 0C139.29 0 46.793 92.5 46.793 206.203c0 113.7 92.496 206.2 206.187 206.2 113.696 0 206.196-92.5 206.196-206.204C459.176 92.5 366.676 0 252.98 0zm0 0" fill="#ffe07f"/><path d="M252.98 0v412.402c113.696 0 206.196-92.5 206.196-206.203C459.176 92.5 366.676 0 252.98 0zm0 0" fill="#ffd23a"/><path d="M216.227 294.164l-70.399-70.402 21.336-21.336 49.063 49.062L338.8 128.91l21.336 21.336zm0 0" fill="#1d608b"/><path d="M252.98 257.5l107.157-107.254L338.8 128.91l-85.82 85.82zm0 0" fill="#0d3954"/></svg>