<svg xmlns="http://www.w3.org/2000/svg" viewBox="0 0 512 512"><path d="M134.456 346.931L77.759 463.088c-2.85 5.839 1.729 12.564 8.207 12.051l43.647-3.457 24.127 36.537c3.581 5.422 11.699 4.896 14.55-.944l54.563-111.785-88.397-48.559zm243.452-.178l-88.078 49.214 54.336 111.32c2.849 5.837 10.963 6.366 14.546.948l24.146-36.51 43.638 3.425c6.475.508 11.05-6.214 8.201-12.052l-56.789-116.345z" fill="#e6646e"/><path d="M190.493 377.714l-22.097-12.138-33.941-18.645-11.031 22.599.507.662c4.919-.619 9.607 2.135 11.608 6.481 2.908 6.313 7.215 11.699 12.432 15.922 3.034 2.456 3.995 6.645 2.282 10.154l-9.874 20.231c-3.05 6.255-.459 13.789 5.788 16.839a12.546 12.546 0 005.517 1.279c4.665 0 9.141-2.599 11.322-7.067l15.354-31.458c2.247-.105 4.501-.223 6.71-.663a11.294 11.294 0 012.206-.218c3.141 0 6.165 1.323 8.296 3.631 4.712 5.101 10.544 8.938 16.924 11.386l10.356-21.217-32.359-17.778zm187.415-30.961l-88.078 49.214 10.054 20.597c6.23-2.456 11.924-6.242 16.542-11.243a11.328 11.328 0 018.295-3.631c.739 0 1.482.073 2.209.218 2.363.471 4.778.624 7.183.71l15.33 31.411c2.181 4.468 6.657 7.067 11.322 7.067 1.853 0 3.738-.41 5.517-1.279 6.247-3.05 8.838-10.584 5.788-16.839l-9.995-20.479c-1.706-3.495-.75-7.658 2.251-10.132 5.229-4.312 9.52-9.806 12.375-16.231 1.531-3.446 4.775-5.554 8.527-5.937 1.296-.133 2.504-.501 3.756-.753l-11.076-22.693z" fill="#dc4655"/><path d="M269.732 3.587c11.334-6.353 25.545-4.102 34.361 5.442a28.085 28.085 0 0026.119 8.487c12.742-2.54 25.563 3.993 30.997 15.794a28.081 28.081 0 0022.218 16.142c12.903 1.522 23.078 11.697 24.6 24.6a28.083 28.083 0 0016.142 22.218c11.801 5.435 18.334 18.255 15.794 30.997a28.083 28.083 0 008.487 26.119c9.544 8.816 11.795 23.027 5.442 34.361a28.085 28.085 0 000 27.463c6.353 11.334 4.102 25.545-5.442 34.361a28.085 28.085 0 00-8.487 26.119c2.54 12.742-3.993 25.563-15.794 30.997a28.081 28.081 0 00-16.142 22.218c-1.522 12.903-11.697 23.078-24.6 24.6a28.083 28.083 0 00-22.218 16.142c-5.435 11.801-18.255 18.334-30.997 15.794a28.083 28.083 0 00-26.119 8.487c-8.816 9.544-23.027 11.795-34.361 5.442a28.085 28.085 0 00-27.463 0c-11.334 6.353-25.545 4.102-34.361-5.442a28.085 28.085 0 00-26.119-8.487c-12.742 2.54-25.563-3.993-30.997-15.794a28.081 28.081 0 00-22.218-16.142c-12.903-1.522-23.078-11.697-24.6-24.6a28.083 28.083 0 00-16.142-22.218c-11.801-5.435-18.334-18.255-15.794-30.997a28.083 28.083 0 00-8.487-26.119c-9.544-8.816-11.795-23.027-5.442-34.361a28.085 28.085 0 000-27.463c-6.353-11.334-4.102-25.545 5.442-34.361a28.085 28.085 0 008.487-26.119c-2.54-12.742 3.993-25.563 15.794-30.997a28.081 28.081 0 0016.142-22.218c1.522-12.903 11.697-23.078 24.6-24.6a28.083 28.083 0 0022.218-16.142c5.435-11.801 18.255-18.334 30.997-15.794a28.08 28.08 0 0026.119-8.487c8.816-9.544 23.027-11.795 34.361-5.442a28.08 28.08 0 0027.463 0z" fill="#ffd164"/><path d="M410.61 286.223c16.312-29.686 24.331-64.571 20.904-101.548-7.729-83.409-75.301-150.981-158.71-158.71-36.977-3.426-71.862 4.593-101.548 20.904-4.742 2.606-10.177-2.17-8.009-7.128a188.24 188.24 0 0111.771-22.644c-9.845.453-18.932 5.998-23.613 14.961-4.686 8.972-12.869 16.188-22.917 17.404-12.863 1.557-22.996 11.714-24.515 24.589-1.163 9.86-7.124 18.066-16.142 22.219-11.801 5.434-18.334 18.255-15.795 30.996 1.941 9.737-1.194 19.384-8.487 26.121-9.544 8.815-11.794 23.027-5.442 34.36 4.855 8.661 4.855 18.804 0 27.465-6.353 11.333-4.102 25.544 5.442 34.359 7.293 6.737 10.428 16.384 8.487 26.121-2.539 12.741 3.992 25.561 15.792 30.995 9.019 4.154 14.981 12.359 16.145 22.22 1.523 12.903 11.696 23.077 24.599 24.599 9.86 1.163 18.066 7.125 22.219 16.143 5.435 11.801 18.255 18.333 30.996 15.794 9.737-1.941 19.384 1.194 26.121 8.487 8.815 9.544 23.027 11.794 34.36 5.442 8.661-4.855 18.804-4.855 27.465 0 11.333 6.352 25.544 4.102 34.36-5.442 6.737-7.294 16.384-10.428 26.121-8.487 12.742 2.539 25.563-3.994 30.997-15.796 4.152-9.018 12.359-14.978 22.218-16.141 12.874-1.519 23.032-11.652 24.589-24.515 1.216-10.049 8.434-18.232 17.406-22.918 8.961-4.681 14.506-13.766 14.959-23.611a188.315 188.315 0 01-22.644 11.771c-4.959 2.167-9.735-3.268-7.129-8.01z" fill="#ffc350"/><circle cx="256" cy="201.48" r="159.5" fill="#ffedb1"/><path d="M300.719 279.152C239.75 266.318 191.161 217.73 178.327 156.76c-4.314-20.493-4.537-40.384-1.446-59.159 1.038-6.304-6.415-10.361-11.353-6.308-36.296 29.786-57.69 77.024-51.035 128.99 8.119 63.405 59.298 114.583 122.703 122.703 51.967 6.655 99.204-14.739 128.99-51.035 4.053-4.938-.005-12.391-6.308-11.353-18.776 3.091-38.666 2.867-59.159-1.446z" fill="#ffe17d"/><path d="M373.299 165.079c-1.344-8.255-9.096-13.969-17.459-13.969h-66.26s12.584-18.876 21.41-45.735c2.348-7.144-1.675-14.847-8.809-17.225l-.483-.161c-6.561-2.187-13.783.777-16.751 7.024-6.08 12.797-18.488 33.787-38.643 47.611-4.482 3.074-7.095 8.216-7.095 13.651v120.76a8.396 8.396 0 008.395 8.395h83.052c8.364 0 16.115-5.716 17.458-13.971 1.711-10.519-6.363-19.609-16.56-19.609h7.497c8.364 0 16.116-5.716 17.458-13.971 1.711-10.519-6.363-19.609-16.56-19.609h7.497c8.364 0 16.116-5.716 17.458-13.971 1.71-10.519-6.364-19.609-16.56-19.609h8.395c10.199-.001 18.272-9.093 16.56-19.611zM205.63 293.824h-33.58c-9.273 0-16.79-7.517-16.79-16.79v-117.53c0-9.273 7.517-16.79 16.79-16.79h33.58c9.273 0 16.79 7.517 16.79 16.79v117.53c0 9.273-7.517 16.79-16.79 16.79z" fill="#fff"/><circle cx="188.84" cy="260.24" r="8.395" fill="#ffe17d"/><g fill="#fff6d8"><path d="M323.16 235.059a8.395 8.395 0 100 16.79h15.892c8.364 0 16.116-5.716 17.458-13.971.156-.96.146-1.889.145-2.819H323.16zm8.395-33.58a8.395 8.395 0 100 16.79h15.892c8.364 0 16.116-5.716 17.458-13.971.156-.96.146-1.889.144-2.819h-33.494zm0-25.185a8.395 8.395 0 008.395 8.395h16.79c9.267 0 16.695-7.526 16.705-16.79H339.95a8.395 8.395 0 00-8.395 8.395z"/><path d="M306.37 268.639c-27.818 0-50.37-22.551-50.37-50.37v-33.58c0-9.273-7.517-16.79-16.79-16.79v109.135a8.396 8.396 0 008.395 8.395h83.052c9.267 0 17.783-7.017 17.661-16.731l-.058-.059h-41.89zm-134.32-8.395v-75.555c0-9.273-7.517-16.79-16.79-16.79v109.135c0 9.273 7.517 16.79 16.79 16.79h33.58c9.273 0 16.79-7.517 16.79-16.79h-33.58c-9.273 0-16.79-7.517-16.79-16.79z"/></g></svg>