<svg height="512" viewBox="0 0 192 192" width="512" xmlns="http://www.w3.org/2000/svg"><linearGradient id="a" gradientUnits="userSpaceOnUse" x1="51.497" x2="140.503" y1="120.764" y2="31.757"><stop offset="0" stop-color="#34cdfa"/><stop offset="1" stop-color="#e8d9f1"/></linearGradient><g data-name="21-reliable"><path d="M168 16c-21.482 0-58.006-5.32-66.343-13.657a8 8 0 00-11.314 0C82.006 10.68 45.482 16 24 16a8 8 0 00-8 8v88c0 10.776 12.25 20.08 33.9 35.6C65.074 158.468 88 174.9 88 184a8 8 0 0016 0c0-9.1 22.926-25.532 38.1-36.4 21.65-15.52 33.9-24.824 33.9-35.6V24a8 8 0 00-8-8z" fill="#e6f9fe"/><path d="M81.9 139.6C60.25 124.08 48 114.776 48 104V16a8.052 8.052 0 01.161-1.6A210.6 210.6 0 0124 16a8 8 0 00-8 8v88c0 10.776 12.25 20.08 33.9 35.6C65.074 158.468 88 174.9 88 184a8 8 0 0016 0c0-4.265 5.031-10.136 11.939-16.292-7.263-8.922-22.78-20.046-34.039-28.108z" fill="#ccf2fe"/><path d="M144.836 38.611c-5.871-.617-11.609-1.4-17.054-2.343-11.821-2.039-21.191-4.574-28.645-7.751a8 8 0 00-6.274 0c-7.454 3.177-16.824 5.712-28.644 7.751a262.833 262.833 0 01-17.055 2.343A8 8 0 0040 46.567v59.386a8 8 0 002.6 5.9c4.942 4.523 14.384 11.29 21.283 16.234 9.249 6.628 18.814 13.481 26.833 20.536a8 8 0 0010.568 0c8.019-7.055 17.584-13.908 26.838-20.54 6.894-4.94 16.336-11.707 21.278-16.23a8 8 0 002.6-5.9V46.567a8 8 0 00-7.164-7.956z" fill="url(#a)"/><path d="M88 112a7.962 7.962 0 01-4.432-1.344l-24-16 8.875-13.312 17.9 11.931L113.753 59l12.494 10-32 40A7.991 7.991 0 0188 112z" fill="#fff"/></g></svg>