<svg width="50" height="50" fill="none" xmlns="http://www.w3.org/2000/svg"><circle cx="25" cy="25" r="25" fill="#F57500"/><path d="M34.336 18H15.664a.678.678 0 00-.47.188.627.627 0 00-.194.451v1.286c0 .06.067.127.121.155l9.815 5.396a.169.169 0 00.082.02.17.17 0 00.085-.021l9.517-5.39c.054-.029.196-.105.25-.14.064-.042.13-.08.13-.156v-1.15c0-.17-.07-.332-.195-.452a.678.678 0 00-.469-.187zm.581 3.864a.171.171 0 00-.167.001l-5.387 3.05a.162.162 0 00-.08.115.154.154 0 00.043.132l5.387 5.589a.166.166 0 00.121.051.17.17 0 00.117-.047.157.157 0 00.049-.113v-8.639a.156.156 0 00-.083-.139zm-7.106 4.076a.171.171 0 00-.206-.03l-2.158 1.223a.868.868 0 01-.834.005l-1.9-1.045a.172.172 0 00-.195.022l-7.215 6.442a.16.16 0 00-.051.134.157.157 0 00.081.12.66.66 0 00.33.094h18.482a.17.17 0 00.09-.026.16.16 0 00.073-.16.155.155 0 00-.042-.082l-6.455-6.697zm-6.881-.587a.16.16 0 00.053-.135.163.163 0 00-.082-.12l-5.653-3.109a.17.17 0 00-.226.06.154.154 0 00-.022.08v8.154c0 .031.01.062.027.088a.163.163 0 00.072.06.171.171 0 00.18-.03l5.652-5.048z" fill="#fff"/></svg>