<svg width="50" height="50" fill="none" xmlns="http://www.w3.org/2000/svg"><circle cx="25" cy="25" r="25" fill="#00DC3E" fill-opacity=".88"/><path d="M33.49 29.807a.847.847 0 00-.446-.61l-3.583-2.111-.03-.017a1.062 1.062 0 00-.484-.112c-.3 0-.587.113-.786.313l-1.058 1.058a.618.618 0 01-.238.108c-.012-.001-1.23-.089-3.473-2.332-2.24-2.24-2.335-3.462-2.335-3.462a.566.566 0 01.106-.255l.902-.901a1.15 1.15 0 00.224-1.256l-1.992-3.748A.823.823 0 0019.56 16a.849.849 0 00-.6.258L16.5 18.71a1.884 1.884 0 00-.483.975c-.021.157-.457 3.923 4.705 9.086 4.383 4.382 7.8 4.723 8.744 4.723.115.001.23-.005.344-.018.33-.044.739-.246.973-.481l2.457-2.457a.846.846 0 00.25-.732z" fill="#fff"/></svg>