<svg width="49" height="50" fill="none" xmlns="http://www.w3.org/2000/svg"><g clip-path="url(#clip0)"><path d="M44.652 26.244c0-11.665-9.174-21.12-20.49-21.12-11.317 0-20.49 9.455-20.49 21.12 0 11.664 9.173 21.12 20.49 21.12 11.316 0 20.49-9.456 20.49-21.12z" fill="#FF7A00"/><path d="M1.39 41.556L8 48.504a4.752 4.752 0 006.865.067l32.685-33.05c1.914-1.935 1.943-5.103.066-7.075l-6.612-6.948a4.752 4.752 0 00-6.865-.068L1.455 34.48c-1.914 1.936-1.943 5.103-.066 7.076z" fill="#FF7A00"/><path d="M18.421 30.607l11.721-11.594-.488-.524-11.72 11.594.487.524z" fill="#fff"/><path d="M12.806 21.233l1.08 1.156 8.375-8.295-1.067-1.148a3.44 3.44 0 00-2.44-1.102 3.43 3.43 0 00-2.482.996l-3.35 3.32a3.59 3.59 0 00-.782 1.145 3.68 3.68 0 00.665 3.928z" fill="#C8D3D7"/><path d="M22.258 14.112l-8.371 8.28 12.312 13.226 8.372-8.28-12.313-13.226z" fill="#fff"/><path d="M26.199 35.617l5.1 1.924 4.923-4.877-1.648-5.328-8.375 8.28z" fill="#C8D3D7"/><path d="M37.39 39l2.797 3.008L37.391 39z" fill="#fff"/><path d="M40.413 42.008a.21.21 0 01-.069.162.225.225 0 01-.16.07.219.219 0 01-.16-.07l-2.797-3.002a.232.232 0 01-.067-.165.237.237 0 01.139-.217.214.214 0 01.242.051l2.797 3.01a.232.232 0 01.075.161z" fill="#fff"/><path d="M33.432 41.966l6.995-6.92-2.858-.938-4.93 4.87v.007l.793 2.981z" fill="#C8D3D7"/><path d="M40.427 35.048l-6.995 6.919.923.991 6.995-6.919-.923-.991zm-.91 7.622a.904.904 0 001.012.205.937.937 0 00.417-.352.98.98 0 000-1.064.936.936 0 00-.416-.353.905.905 0 00-1.013.205.96.96 0 00-.274.68.984.984 0 00.274.68z" fill="#AE0808"/><path d="M22.227 28.555a.21.21 0 01-.069.162.225.225 0 01-.16.07.22.22 0 01-.16-.07l-4.89-5.25a.238.238 0 01.008-.331.224.224 0 01.32.007l4.89 5.257c.038.042.06.098.06.155z" fill="#C8D3D7"/><path d="M22.534 35.89l.414-.41-8.777-9.428-.414.41 8.777 9.427zm-1.891 1.87l.414-.41-8.777-9.426-.414.41 8.777 9.427zm-1.908 1.88l.414-.41-8.776-9.428-.415.41 8.777 9.427zm-1.891 1.87l.414-.409-8.776-9.427-.415.41 8.777 9.427zm-1.896 1.878l.414-.41-8.776-9.427-.415.41 8.777 9.427zm-1.891 1.878l.414-.41-8.776-9.427-.415.41 8.777 9.427zm-1.903 1.884l.415-.41-8.777-9.427-.414.41 8.776 9.427z" fill="#fff"/><path d="M14.565 26.477l-.397-.428L2.373 37.716l.397.427 11.795-11.666zm1.686 1.802l-.397-.427L4.059 39.519l.398.427L16.25 28.279zm1.679 1.809l-.397-.427L5.738 41.328l.398.427L17.93 30.088zm1.682 1.807l-.398-.427L7.42 43.135l.398.427 11.795-11.667zm1.686 1.803l-.398-.427L9.106 44.937l.397.428 11.795-11.667zm1.679 1.802l-.398-.427L10.785 46.74l.397.427L22.977 35.5zm23.071-22.868l.414-.41-8.777-9.427-.414.41 8.777 9.427zm-1.896 1.867l.414-.41-8.776-9.427-.415.41 8.777 9.427zm-1.896 1.876l.414-.41-8.776-9.426-.415.41 8.777 9.427zM40.36 18.26l.414-.41-8.776-9.428-.415.41 8.777 9.427zm-1.898 1.87l.414-.41-8.776-9.426-.415.41 8.777 9.427zm-1.901 1.88l.415-.41-8.777-9.428-.414.41 8.776 9.427zm-1.891 1.871l.415-.41-8.777-9.427-.414.41 8.776 9.427z" fill="#fff"/><path d="M38.088 3.217l-.398-.427-11.794 11.666.397.428L38.088 3.216zm1.679 1.809L39.37 4.6 27.575 16.266l.398.427L39.767 5.026zm1.681 1.807l-.397-.427-11.795 11.667.398.427L41.448 6.833zm1.675 1.797l-.398-.427L30.931 19.87l.397.427L43.123 8.63zm1.687 1.803l-.399-.427-11.794 11.666.397.427L44.81 10.433zm1.68 1.814l-.397-.427-11.795 11.667.398.427L46.49 12.247z" fill="#fff"/><path d="M36.224 32.667l-4.963 4.908 1.344 1.444 4.963-4.908-1.344-1.444zM13.62 23.65c.13.137.306.217.491.226a.667.667 0 00.5-.204l8.887-8.767a.707.707 0 00.21-.507.722.722 0 00-.21-.508.684.684 0 00-.495-.22.666.666 0 00-.496.22l-8.833 8.746a.7.7 0 00-.237.495.723.723 0 00.182.52z" fill="#AE0808"/><path d="M20.08 16.265c-3.658-3.601-5.47-1.783-5.47-1.783l1.662-1.642a3.43 3.43 0 012.482-.996c.923.02 1.8.416 2.44 1.102l1.067 1.148.24-.24a.685.685 0 01.495-.218.666.666 0 01.495.219.707.707 0 01.21.507.724.724 0 01-.21.508l-.246.24 11.35 12.19 1.64 5.364v-.035l1.368 1.444 2.85.938.924.986-1.484 1.466-.923-.951-2.816-.973-1.368-1.466-2.359-4.595L20.6 16.794l-.52-.529z" fill="#028CD1"/></g><defs><clipPath id="clip0"><path fill="#fff" d="M0 0h49v50H0z"/></clipPath></defs></svg>