<svg width="16" height="16" fill="none" xmlns="http://www.w3.org/2000/svg"><path d="M8 0a8 8 0 100 16A8 8 0 008 0z" fill="#40B3E0"/><path d="M11.893 4.602l-1.43 7.204s-.199.5-.749.26L6.417 9.538l-1.199-.58L3.2 8.28s-.31-.11-.34-.35c-.03-.24.35-.37.35-.37l8.023-3.147s.66-.29.66.19" fill="#fff"/><path d="M6.164 11.725s-.097-.009-.217-.389-.729-2.378-.729-2.378l4.846-3.077s.28-.17.27 0c0 0 .05.03-.1.17-.15.14-3.807 3.427-3.807 3.427" fill="#D2E5F1"/><path d="M7.681 10.507l-1.304 1.19s-.102.077-.213.028l.25-2.209" fill="#B5CFE4"/></svg>